<?xml version="1.0" standalone="no"?>
<!DOCTYPE svg PUBLIC "-//W3C//DTD SVG 20010904//EN"
 "http://www.w3.org/TR/2001/REC-SVG-20010904/DTD/svg10.dtd">
<svg version="1.0" xmlns="http://www.w3.org/2000/svg"
 width="600.000000pt" height="600.000000pt" viewBox="0 0 600.000000 600.000000"
 preserveAspectRatio="xMidYMid meet">
<metadata>
Created by potrace 1.11, written by Peter Selinger 2001-2013
</metadata>
<g transform="translate(0.000000,600.000000) scale(0.100000,-0.100000)"
fill="#000000" stroke="none">
<path d="M0 3715 c0 -1257 2 -2285 4 -2285 3 0 2107 1200 2115 1207 3 2 -4 21
-15 43 l-19 39 -450 -174 c-247 -96 -451 -173 -452 -171 -2 2 191 92 429 201
238 108 436 200 440 204 5 5 -38 178 -48 189 -1 2 -192 -17 -423 -43 -232 -26
-426 -45 -431 -43 -6 2 182 37 418 78 l429 74 -1 113 c-1 92 -4 114 -16 117
-8 3 -219 39 -468 82 -250 43 -450 80 -445 81 5 2 210 -19 457 -47 247 -27
456 -50 465 -50 11 0 23 23 40 83 12 45 24 88 25 96 0 9 -138 78 -402 199
-221 102 -401 186 -399 188 2 2 183 -66 403 -152 219 -86 406 -158 415 -161
10 -3 24 13 44 49 16 29 41 73 57 97 15 24 25 47 23 52 -3 4 -159 141 -348
305 -316 275 -405 354 -367 327 8 -5 183 -139 388 -297 l374 -287 61 57 c85
79 169 140 250 180 37 19 67 38 67 42 0 9 -12 43 -174 511 -64 184 -115 336
-113 338 2 2 80 -180 172 -404 92 -225 172 -412 176 -417 4 -5 48 2 101 15
131 34 363 34 487 1 46 -13 85 -21 88 -19 5 6 87 201 244 583 67 165 126 303
130 308 4 5 -17 -62 -47 -150 -167 -477 -264 -760 -264 -766 0 -5 26 -21 58
-36 89 -43 181 -110 251 -182 l65 -66 240 186 c361 279 504 386 476 358 -14
-14 -169 -151 -345 -303 -176 -153 -321 -281 -323 -285 -1 -4 22 -46 52 -94
30 -48 56 -91 58 -97 2 -5 206 69 453 165 247 96 451 174 452 172 2 -1 -192
-92 -429 -201 -238 -109 -436 -201 -439 -204 -3 -3 5 -48 19 -98 22 -82 28
-93 47 -93 12 0 204 20 425 45 221 25 412 45 424 44 11 0 -177 -36 -419 -78
l-440 -77 0 -114 0 -114 464 -81 c254 -44 457 -81 449 -83 -8 -1 -218 20 -467
48 -249 28 -454 50 -455 48 -4 -7 -48 -164 -50 -177 -1 -10 133 -76 401 -200
222 -101 401 -186 399 -188 -2 -2 -189 68 -417 156 -227 88 -413 159 -414 158
-1 -1 -11 -19 -23 -39 l-21 -37 1022 -584 c562 -321 1032 -589 1045 -596 l22
-12 0 2276 0 2275 -3000 0 -3000 0 0 -2285z m1230 195 c8 -5 11 -10 5 -10 -5
0 -17 5 -25 10 -8 5 -10 10 -5 10 6 0 17 -5 25 -10z m3733 -487 c-7 -2 -19 -2
-25 0 -7 3 -2 5 12 5 14 0 19 -2 13 -5z m-3840 -550 c-7 -2 -21 -2 -30 0 -10
3 -4 5 12 5 17 0 24 -2 18 -5z m3707 -483 c8 -5 11 -10 5 -10 -5 0 -17 5 -25
10 -8 5 -10 10 -5 10 6 0 17 -5 25 -10z"/>
<path d="M2965 2981 c8 -17 19 -33 25 -36 15 -9 12 -58 -6 -83 -22 -32 -34
-18 -28 32 4 27 2 46 -5 50 -7 4 -11 0 -11 -12 0 -11 -7 -25 -15 -32 -21 -18
-19 -56 7 -101 l22 -39 -33 -31 c-29 -26 -32 -34 -27 -64 6 -29 4 -35 -10 -35
-13 0 -15 7 -10 38 19 117 19 140 -4 171 -25 36 -43 41 -31 9 13 -36 1 -67
-40 -99 -24 -19 -39 -39 -39 -52 0 -43 -12 -67 -32 -67 -18 0 -20 5 -15 33 3
19 -1 43 -9 57 -7 14 -13 38 -14 53 0 16 -4 26 -10 22 -5 -3 -10 -29 -10 -56
0 -37 -7 -60 -25 -87 -29 -42 -32 -86 -10 -139 19 -45 19 -73 0 -73 -21 0 -36
42 -30 82 5 31 4 30 -17 -12 -34 -71 -30 -100 26 -160 49 -53 54 -73 18 -78
-16 -2 -26 6 -41 35 l-20 38 -1 -31 c-1 -79 36 -120 117 -130 68 -9 119 -44
127 -87 6 -31 11 -36 62 -52 43 -13 79 -16 162 -13 59 3 116 8 127 12 16 6 17
6 5 -3 -8 -6 -36 -14 -63 -17 -35 -5 -45 -10 -37 -18 5 -7 12 -37 16 -68 6
-50 4 -57 -14 -67 -28 -15 -84 -14 -107 3 -15 11 -17 22 -12 62 3 27 9 57 12
67 6 14 2 17 -21 17 -16 1 -45 7 -64 13 -34 13 -35 12 -36 -15 -1 -15 -7 -35
-15 -44 -37 -44 -14 -95 59 -131 98 -48 258 -31 313 33 22 25 28 77 12 92 -16
16 -28 82 -16 91 6 3 15 23 22 43 16 48 26 55 91 63 91 12 140 49 140 107 0
35 -7 35 -32 2 -13 -16 -28 -24 -42 -22 -36 5 -23 32 26 55 28 14 49 32 54 45
4 13 15 34 25 47 11 13 19 35 18 50 0 26 0 26 -11 4 -21 -44 -48 -22 -48 38 0
18 -4 28 -10 24 -5 -3 -10 -28 -10 -56 0 -53 -19 -67 -40 -29 -15 27 -6 51 36
101 37 44 43 83 19 115 -14 18 -15 17 -12 -15 1 -20 -3 -36 -10 -38 -9 -3 -13
5 -13 23 0 15 -7 35 -15 44 -8 9 -24 34 -34 55 l-19 39 -7 -32 c-4 -22 -2 -38
9 -54 20 -28 20 -49 2 -74 -13 -17 -16 -18 -31 -3 -13 12 -13 21 -4 47 13 38
7 71 -21 103 l-19 24 -1 -22 c0 -13 -4 -23 -10 -23 -5 0 -10 19 -10 43 0 33
-6 49 -25 67 -16 15 -25 35 -25 54 -1 27 -2 29 -11 13 -10 -18 -9 -35 7 -101
6 -25 2 -33 -30 -60 -33 -28 -36 -34 -28 -57 13 -34 0 -58 -22 -40 -24 20 -19
71 9 113 28 41 32 90 10 128 -8 14 -15 36 -15 50 -1 22 -2 23 -11 8 -5 -10 -9
-28 -8 -40 4 -41 -1 -60 -13 -56 -8 3 -12 20 -10 44 3 46 -16 73 -71 103 -49
27 -50 27 -32 -8z m55 -230 c-8 -16 -7 -28 4 -50 14 -25 14 -31 1 -41 -12 -10
-16 -7 -25 15 -14 37 -13 52 7 86 19 32 31 23 13 -10z m-204 -88 c-11 -11 -19
6 -11 24 8 17 8 17 12 0 3 -10 2 -21 -1 -24z m418 -25 c-9 -14 -24 2 -24 25 1
21 1 21 15 3 8 -10 12 -23 9 -28z m-254 -64 c0 -8 -5 -14 -10 -14 -15 0 -32
49 -24 73 6 18 8 17 20 -12 8 -19 14 -40 14 -47z m-200 -30 c0 -18 -6 -18 -30
3 -30 26 -26 48 5 27 14 -9 25 -23 25 -30z m303 -11 c-3 -9 -9 -11 -15 -5 -5
5 -6 17 -2 26 5 13 9 14 14 5 5 -7 6 -19 3 -26z m73 -57 c-8 -20 -22 -36 -30
-36 -23 0 -20 18 9 52 14 16 26 39 26 51 2 18 3 17 6 -4 2 -15 -3 -43 -11 -63z
m144 27 c0 -33 -17 -21 -22 17 -4 24 -2 27 9 19 7 -7 13 -22 13 -36z m-445
-41 c-6 -16 -8 -15 -21 2 -8 11 -14 31 -14 44 l0 25 21 -27 c13 -16 18 -33 14
-44z m65 42 c0 -8 -4 -14 -10 -14 -5 0 -10 9 -10 21 0 11 5 17 10 14 6 -3 10
-13 10 -21z m123 -22 c20 -22 13 -32 -23 -32 -15 0 -30 3 -33 7 -7 7 21 43 33
43 4 0 14 -8 23 -18z m-331 -54 c-17 -17 -24 -4 -16 28 7 28 7 28 17 6 7 -16
7 -26 -1 -34z m98 1 c0 -4 -9 -13 -19 -19 -24 -12 -38 4 -21 25 12 14 40 10
40 -6z m275 -18 c15 -31 15 -35 -1 -52 -24 -26 -104 -26 -128 -1 -14 17 -15
23 -2 53 13 32 17 34 64 34 48 0 52 -2 67 -34z m-225 -11 c0 -17 -54 -50 -81
-50 -33 0 -41 27 -11 36 9 3 28 11 42 18 25 13 50 11 50 -4z m26 -48 c-14 -43
-126 -70 -134 -32 -2 11 8 15 39 16 32 0 47 6 63 26 23 28 42 22 32 -10z m464
14 c0 -15 -28 -42 -35 -34 -3 2 1 16 7 30 13 26 28 28 28 4z m-330 -46 c9 0
32 9 53 19 24 12 37 15 38 7 1 -6 3 -29 5 -51 5 -50 -12 -159 -32 -197 -13
-26 -13 -28 4 -28 10 0 40 6 65 14 26 8 45 11 42 6 -10 -15 -96 -30 -180 -30
-92 0 -168 14 -185 35 -6 7 9 5 43 -6 28 -10 61 -18 73 -19 21 0 21 0 3 54
-10 30 -22 79 -25 110 l-7 55 39 -19 c21 -11 49 -20 61 -20 30 0 98 28 90 37
-4 3 -12 1 -19 -4 -23 -18 -68 -24 -108 -13 -43 12 -62 35 -54 67 5 20 6 20
42 2 20 -11 43 -19 52 -19z m-121 -56 c-16 -20 -83 -38 -113 -30 -18 4 -26 13
-26 29 0 19 5 22 46 22 38 1 51 6 73 30 l26 30 3 -33 c2 -18 -2 -40 -9 -48z
m15 -41 c3 -10 8 -36 12 -58 4 -22 11 -48 16 -58 5 -10 8 -20 6 -22 -8 -8 -94
17 -111 33 -16 14 -57 83 -57 95 0 1 15 2 33 0 17 -2 43 3 57 11 34 19 38 19
44 -1z m43 -179 c-3 -3 -12 -4 -19 -1 -8 3 -5 6 6 6 11 1 17 -2 13 -5z m-13
-89 c-3 -27 -8 -53 -11 -57 -15 -26 -93 18 -93 51 0 10 5 31 10 48 11 29 11
29 56 19 l45 -11 -7 -50z"/>
<path d="M2970 2394 c7 -8 29 -14 50 -14 21 0 43 6 50 14 10 13 7 13 -19 3
-24 -9 -38 -9 -62 0 -26 10 -29 10 -19 -3z"/>
<path d="M3462 2553 c-16 -29 -15 -58 2 -72 19 -16 28 12 17 59 -7 34 -8 34
-19 13z"/>
<path d="M2070 2129 c0 -5 6 -9 14 -9 8 0 24 -9 37 -19 23 -19 23 -21 7 -37
-16 -16 -18 -15 -48 10 -42 34 -88 34 -143 -1 -38 -25 -50 -27 -122 -25 -80 3
-80 2 -134 -38 -39 -30 -61 -40 -75 -35 -12 3 -47 9 -78 12 -49 5 -60 3 -85
-17 l-28 -22 37 7 c39 7 99 -7 117 -28 7 -10 0 -21 -27 -42 -33 -27 -43 -30
-102 -27 -52 1 -70 -2 -90 -18 l-25 -20 35 0 c19 0 53 -12 75 -25 43 -27 78
-31 121 -15 l26 10 -7 -57 c-7 -66 -23 -83 -73 -83 -48 0 -69 -15 -96 -68 -14
-27 -31 -54 -39 -61 -26 -21 -80 -24 -122 -7 -54 23 -54 14 2 -24 44 -29 54
-31 113 -28 66 3 97 17 189 83 38 28 81 33 81 11 0 -8 -10 -27 -22 -41 -18
-20 -37 -28 -88 -35 -56 -8 -69 -14 -93 -42 -83 -99 -82 -98 -129 -98 -25 0
-63 7 -83 16 -24 10 -51 13 -72 9 -42 -8 -43 -20 0 -21 17 0 41 -4 52 -8 17
-7 17 -6 5 4 -12 10 -10 10 10 5 101 -29 158 -12 203 59 30 48 57 62 132 69
73 7 95 37 95 127 0 59 3 73 26 100 15 17 29 28 33 25 3 -4 6 -45 6 -91 1 -85
0 -85 -33 -110 -18 -14 -46 -50 -63 -79 -29 -51 -32 -54 -70 -53 -31 0 -50 -8
-95 -43 -45 -35 -65 -43 -108 -47 -36 -3 -62 1 -84 12 -18 9 -32 14 -32 12 0
-13 63 -36 100 -36 51 0 102 21 146 60 26 23 45 30 74 30 22 0 40 -2 40 -4 0
-14 -45 -78 -60 -86 -10 -6 -38 -10 -62 -10 -29 0 -66 -12 -116 -36 -74 -37
-105 -40 -167 -19 -17 6 -17 4 4 -14 l23 -21 -48 0 c-60 0 -113 -24 -214 -95
-74 -52 -93 -60 -131 -57 -22 2 -33 32 -18 46 9 8 10 8 5 -2 -11 -19 19 -25
59 -12 121 40 160 172 72 246 -26 22 -38 25 -75 21 -27 -3 -54 1 -71 9 -55 29
-182 7 -233 -40 -14 -14 -36 -51 -48 -83 -31 -84 -32 -85 -111 -77 l-67 6 -51
-47 c-55 -51 -43 -49 -155 -29 -22 4 -36 2 -41 -7 -6 -9 1 -11 29 -6 20 3 34
2 31 -3 -7 -11 63 -60 85 -60 8 0 2 7 -15 16 -49 25 -52 34 -14 34 29 0 46 9
85 46 l49 46 62 -6 c37 -4 71 -2 82 4 11 5 28 37 41 74 11 35 29 71 38 79 24
22 78 43 130 52 l42 7 0 -54 0 -53 -37 -2 c-49 -2 -79 -27 -133 -106 -50 -73
-52 -75 -130 -82 -34 -3 -66 -13 -85 -27 -16 -12 -45 -25 -65 -29 l-35 -8 38
2 c43 3 47 -10 13 -42 -22 -21 -30 -22 -89 -16 -47 5 -67 4 -72 -5 -5 -8 -3
-11 6 -8 8 3 37 -4 64 -14 59 -23 116 -20 174 10 56 29 111 39 111 19 0 -33
-34 -57 -89 -62 -64 -6 -75 -14 -106 -76 -13 -25 -32 -49 -41 -53 -9 -3 -43
-1 -75 6 -52 11 -61 10 -76 -4 -15 -16 -15 -17 5 -11 12 3 40 -2 62 -11 50
-20 76 -20 35 -1 l-30 15 33 -6 c44 -8 76 15 107 76 l25 50 56 0 c45 0 59 4
79 25 14 13 25 34 25 45 0 33 27 77 52 84 49 13 67 7 70 -21 2 -18 14 -35 35
-48 31 -19 33 -23 30 -75 -2 -60 -1 -59 -77 -45 -30 5 -40 2 -69 -25 -24 -22
-40 -30 -55 -26 -12 3 -39 8 -61 11 -38 5 -37 4 10 -10 69 -20 78 -19 113 14
28 28 33 29 72 19 55 -14 109 2 161 49 39 35 39 35 29 9 -5 -15 -10 -45 -10
-67 0 -39 0 -40 -22 -25 -25 18 -95 21 -118 6 -11 -7 -6 -10 21 -10 38 0 71
-23 47 -33 -9 -4 -9 -6 -1 -6 19 -1 26 18 13 34 -17 21 -1 19 38 -5 48 -29 72
-75 72 -137 0 -55 -14 -73 -59 -73 -25 0 -52 -37 -43 -60 9 -22 143 -165 161
-171 12 -4 16 -31 12 -76 -1 -19 -57 -16 -99 4 -27 13 -32 19 -19 21 38 8 12
37 -53 60 -71 25 -93 39 -59 38 12 -1 26 7 32 16 15 22 -12 53 -60 69 -27 9
-32 14 -22 25 14 18 -13 64 -39 65 -11 0 -9 3 8 10 52 20 60 73 14 85 -30 8
-23 20 16 28 41 8 50 34 19 57 l-24 19 40 1 c26 1 31 3 16 6 -29 6 -73 -5 -67
-16 3 -5 0 -9 -7 -8 -6 0 -23 -1 -37 -2 -20 -1 -22 -3 -10 -11 8 -5 34 -6 57
-3 35 5 43 3 43 -10 0 -10 -14 -20 -40 -27 -21 -6 -42 -15 -46 -21 -3 -6 -16
-14 -28 -19 -16 -7 -9 -9 29 -7 46 2 50 0 53 -22 4 -27 -12 -41 -49 -41 -15 0
-37 -9 -50 -21 -23 -19 -23 -20 -2 -10 33 16 49 13 80 -14 23 -20 25 -26 14
-34 -8 -5 -19 -7 -26 -5 -14 6 -65 -13 -65 -23 0 -5 20 -7 44 -5 45 4 136 -27
136 -46 0 -21 -27 -33 -54 -22 -37 14 -41 13 -25 -7 16 -19 106 -63 130 -63 9
0 22 -6 28 -14 10 -11 4 -13 -31 -9 -34 4 -47 1 -61 -15 -18 -20 -18 -20 20
-15 28 4 51 -1 79 -15 21 -11 53 -23 71 -26 25 -6 34 -15 44 -43 8 -25 21 -39
45 -49 38 -16 98 -20 74 -5 -8 6 -17 8 -21 5 -4 -2 -20 1 -37 7 -21 7 -35 22
-45 47 l-14 36 39 19 c22 11 42 26 45 33 3 9 11 10 30 3 13 -5 42 -9 64 -9 21
0 39 -4 39 -9 0 -5 7 -11 15 -15 13 -4 14 -2 5 14 -7 14 -21 20 -44 20 -53 0
-93 18 -100 46 -4 13 -11 24 -16 24 -12 0 -41 56 -33 64 13 13 81 6 94 -10 10
-12 25 -15 64 -11 27 3 60 8 73 12 17 6 22 3 22 -11 0 -13 3 -15 11 -7 19 19
-1 35 -35 28 -77 -15 -95 -16 -116 -5 -18 10 -20 14 -9 21 8 5 20 9 28 9 11 0
11 -3 1 -15 -8 -9 -8 -15 -2 -15 6 0 13 8 17 19 3 10 24 31 45 45 32 21 44 24
59 16 11 -5 41 -9 68 -9 26 1 73 -2 104 -6 48 -6 55 -10 55 -29 -1 -18 -44
-66 -60 -66 -3 0 -6 9 -6 20 0 34 -27 34 -77 1 -41 -28 -53 -31 -93 -26 -33 5
-41 4 -30 -4 26 -18 83 -12 125 14 22 14 46 25 53 25 21 0 9 -23 -19 -37 l-24
-13 30 0 c17 0 44 9 62 19 l31 20 16 -24 c21 -33 118 -64 140 -45 22 18 20 33
-2 19 -27 -17 -90 -2 -120 28 l-26 26 37 19 c23 11 42 31 51 51 11 27 23 36
70 52 44 15 59 16 68 7 7 -7 19 -12 27 -12 13 1 12 4 -3 15 -26 19 -50 19
-108 -2 -44 -16 -48 -16 -66 0 -10 9 -31 17 -45 17 -15 0 -27 2 -27 5 0 3 12
22 28 43 22 31 32 36 57 34 17 -2 54 1 84 8 45 10 56 10 69 -3 23 -24 8 -51
-25 -42 -27 6 -27 6 -9 -14 25 -27 67 -27 115 1 45 26 96 19 88 -12 -3 -10 0
-21 7 -24 6 -2 -7 -2 -28 1 -28 5 -37 3 -32 -5 15 -25 58 -12 109 33 51 44 97
59 112 35 8 -13 -13 -39 -40 -50 -17 -8 -16 -9 9 -9 19 -1 41 10 67 34 45 40
59 43 84 15 17 -19 17 -21 0 -40 -10 -11 -29 -20 -42 -20 -14 0 -21 -4 -18
-10 3 -6 22 -10 41 -10 35 0 49 10 101 73 25 30 70 37 79 12 12 -31 -5 -62
-43 -78 l-38 -15 36 -1 c45 -1 94 34 131 95 35 55 44 59 91 39 50 -21 70 -19
113 10 20 14 41 22 48 18 8 -4 8 -3 0 6 -13 14 -53 2 -73 -23 -17 -20 -37 -20
-80 3 -33 17 -33 18 -14 32 30 21 45 56 34 77 -7 14 -5 22 8 34 11 9 21 37 25
67 6 48 10 54 43 67 19 8 33 18 29 21 -9 9 -66 -18 -76 -38 -6 -10 -10 -33
-10 -53 0 -40 -25 -71 -49 -60 -9 4 -34 8 -56 9 -72 4 -114 16 -129 39 -8 13
-28 29 -45 36 -21 8 -28 16 -22 24 5 6 14 29 21 51 8 27 22 46 42 58 48 28 62
23 55 -19 l-6 -37 24 23 c13 12 29 36 35 53 27 73 40 97 55 97 22 0 19 -43 -6
-74 -18 -22 -18 -26 -4 -26 31 0 70 52 84 113 10 45 16 57 32 57 15 0 19 -7
19 -33 0 -18 -7 -43 -16 -55 -18 -26 -4 -30 18 -4 29 33 39 64 39 118 0 73 28
69 30 -4 1 -26 1 -26 16 8 10 24 13 52 10 88 -3 28 -2 52 3 52 14 0 30 -36 30
-67 0 -27 0 -27 15 -6 31 44 29 75 -7 122 -18 24 -37 50 -43 58 -15 22 29 53
75 53 46 0 75 28 66 64 -9 35 -34 46 -125 52 -74 6 -79 5 -95 -17 -9 -13 -16
-36 -16 -51 0 -21 -7 -31 -25 -38 -13 -5 -34 -25 -47 -44 -18 -28 -30 -35 -65
-39 -23 -2 -55 -13 -70 -23 -16 -10 -40 -17 -54 -15 -15 1 -43 -5 -63 -13 -34
-14 -36 -14 -46 5 -6 11 -8 23 -5 28 3 5 -4 7 -15 4 -19 -5 -19 -7 -6 -22 8
-9 28 -43 43 -76 26 -56 27 -69 27 -195 0 -109 -3 -145 -19 -190 -23 -64 -44
-74 -83 -37 -35 32 -65 47 -94 47 -18 0 -28 10 -43 42 -24 51 -88 88 -162 95
l-48 4 40 -21 c52 -26 85 -64 85 -98 0 -20 -3 -23 -12 -14 -15 15 -61 15 -76
0 -20 -20 -14 -58 14 -83 50 -47 142 -23 158 40 8 30 26 32 49 7 23 -25 22
-29 -11 -35 -18 -4 -33 -16 -41 -33 -11 -24 -10 -31 7 -53 16 -22 27 -26 62
-24 47 2 75 22 84 59 8 32 39 31 71 -1 32 -32 31 -41 -5 -48 -25 -6 -30 -11
-30 -37 0 -23 5 -31 24 -36 38 -9 67 5 82 41 11 27 18 32 36 28 40 -10 48 -21
36 -53 -18 -52 -112 -65 -200 -28 -48 20 -67 22 -206 20 -154 -2 -192 4 -192
33 0 8 -5 15 -10 15 -17 0 7 -38 33 -52 14 -7 50 -11 97 -8 167 7 204 5 267
-19 49 -18 77 -22 123 -19 l60 4 2 -30 c3 -62 -4 -111 -19 -128 -24 -27 -36
-21 -17 7 25 39 6 75 -40 75 -28 0 -40 -7 -66 -40 -18 -22 -42 -45 -53 -52
-21 -11 -21 -10 -4 9 22 25 22 46 -1 66 -27 25 -57 21 -90 -12 -27 -27 -29
-28 -25 -7 3 16 -2 25 -19 33 -31 14 -64 1 -110 -45 -33 -31 -38 -33 -38 -16
0 46 -52 58 -108 24 -18 -11 -47 -20 -65 -19 -29 0 -30 1 -9 9 32 13 27 45
-13 81 -24 22 -35 42 -36 63 -2 30 -2 30 -6 4 -2 -15 0 -36 6 -46 9 -18 6 -21
-34 -31 -36 -9 -63 -8 -147 9 -57 10 -120 22 -141 25 -39 6 -39 7 -32 43 14
75 80 162 122 162 9 0 13 3 10 6 -11 11 -66 -17 -92 -48 -13 -15 -34 -55 -46
-88 -25 -70 -40 -85 -75 -76 -24 6 -25 10 -19 42 4 22 2 41 -6 50 -14 17 -53
18 -66 2 -16 -20 -23 -48 -13 -48 5 0 10 10 12 22 2 17 11 24 31 26 32 4 45
-18 29 -53 -13 -27 7 -50 48 -57 21 -4 22 -6 8 -12 -27 -12 -101 15 -113 42
-5 12 -14 22 -19 22 -4 0 -2 -10 6 -23 22 -33 77 -59 116 -53 35 5 37 3 22
-41 -14 -38 -46 -55 -96 -51 -36 3 -39 5 -36 31 6 57 -53 79 -84 32 -14 -21
-14 -30 -4 -54 15 -36 70 -64 115 -59 38 4 37 -5 -3 -26 -29 -15 -55 -19 -116
-17 -34 1 -38 3 -33 22 8 28 -1 47 -27 61 -20 10 -20 10 2 -11 24 -24 27 -36
11 -46 -18 -12 -4 -28 37 -41 l39 -12 -43 -1 c-76 -2 -118 39 -87 85 8 13 11
24 5 24 -6 0 -15 -11 -20 -25 -11 -29 4 -72 29 -80 22 -7 44 -77 28 -87 -27
-17 -50 -4 -122 68 -86 88 -96 118 -42 128 56 11 72 31 70 86 0 29 -10 67 -22
90 -44 85 -15 214 60 266 49 34 51 48 2 23 -21 -10 -42 -19 -48 -19 -18 0
-126 56 -119 62 3 4 3 16 -1 28 -5 15 -13 20 -26 17 -10 -3 -19 -1 -19 4 0 19
40 8 56 -17 20 -29 63 -54 97 -54 13 0 59 25 103 56 114 81 246 140 180 82
-14 -13 -28 -36 -31 -53 -5 -29 -5 -29 8 4 18 46 46 59 126 54 36 -2 74 -4 84
-4 15 0 17 -6 11 -33 -10 -56 21 -98 89 -120 25 -8 83 18 97 43 29 54 -60 113
-92 62 -15 -25 -34 -27 -42 -5 -21 56 51 104 156 104 86 0 178 36 235 92 23
23 45 39 49 35 9 -9 -33 -74 -53 -82 -15 -5 -15 -7 -3 -16 12 -7 11 -9 -5 -7
-43 3 -75 -2 -75 -13 0 -19 76 -1 141 32 42 22 66 29 86 25 85 -19 193 43 193
111 0 27 6 37 33 53 37 23 77 26 96 8 10 -11 11 -10 6 3 -5 12 1 18 22 22 16
3 31 0 35 -6 5 -8 10 -4 14 11 8 30 64 32 64 3 0 -12 -9 -21 -22 -24 -20 -5
-20 -5 2 -4 16 1 26 9 28 22 2 11 13 30 24 41 21 23 23 38 12 101 -6 40 -5 42
35 67 33 21 41 32 40 54 -1 17 -3 20 -6 10 -2 -10 -17 -21 -31 -24 -15 -3 -35
-9 -44 -14 -26 -14 -32 6 -8 30 22 22 11 26 -23 9 -31 -17 -37 -28 -37 -76 0
-31 -5 -45 -19 -53 -21 -11 -120 -14 -145 -4 -25 10 -19 37 13 55 15 9 37 34
47 55 15 30 29 42 64 55 26 9 50 26 57 39 6 13 19 27 27 32 18 10 22 88 6 118
-14 26 -61 34 -102 17 -23 -10 -40 -11 -55 -4 -21 9 -21 11 -8 38 19 36 6 73
-32 92 -34 17 -113 28 -113 16z m101 -19 c15 -8 19 -21 19 -60 0 -53 -10 -69
-30 -45 -7 8 -21 15 -31 15 -25 0 -24 12 1 28 22 14 26 42 8 60 -16 16 5 17
33 2z m-191 -77 l0 -48 -37 2 c-21 0 -51 8 -68 17 -47 25 -77 19 -146 -29 -77
-54 -116 -64 -154 -39 -15 10 -48 24 -73 31 l-47 13 65 -5 c36 -2 74 -7 85
-10 14 -4 40 7 80 35 l60 41 75 -6 c69 -6 78 -4 110 19 19 14 38 25 43 26 4 0
7 -21 7 -47z m159 -32 c9 -6 11 -18 6 -40 -5 -26 -9 -29 -25 -21 -24 13 -33
39 -19 56 13 16 19 17 38 5z m-314 -48 c-1 -37 -5 -47 -16 -44 -35 10 -126 3
-156 -13 -41 -20 -73 -55 -73 -76 0 -20 -40 -40 -78 -40 -15 0 -45 12 -67 25
-22 14 -48 25 -58 25 -11 0 -15 4 -11 11 4 8 28 10 70 6 58 -6 65 -4 103 24
23 16 64 34 92 39 32 6 71 24 106 50 76 54 89 53 88 -7z m230 37 c3 -5 0 -10
-7 -10 -7 0 -24 -3 -38 -6 -24 -5 -24 -5 -6 10 23 18 42 20 51 6z m-89 -25 c2
-5 -12 -20 -31 -32 -42 -27 -57 -12 -24 23 23 24 50 29 55 9z m228 9 c23 -9
20 -26 -4 -19 -14 5 -20 2 -20 -9 0 -9 -4 -16 -10 -16 -14 0 -13 23 2 38 14
14 12 14 32 6z m-104 -14 c0 -6 13 -18 29 -28 27 -16 28 -19 15 -42 -7 -14
-13 -32 -14 -40 0 -8 8 1 18 20 12 26 34 44 80 68 53 27 63 30 60 15 -2 -10
-12 -19 -23 -21 -53 -10 -63 -67 -18 -100 16 -11 26 -23 23 -26 -3 -3 -43 -6
-88 -7 -68 -2 -82 -6 -81 -18 3 -29 -1 -34 -16 -21 -19 16 -19 34 -1 53 37 37
-29 91 -73 61 -36 -26 -26 -60 17 -55 6 1 12 -2 12 -7 0 -6 -24 -13 -54 -16
-60 -8 -70 -16 -80 -63 -9 -40 -29 -57 -57 -48 -14 5 -19 4 -15 -4 12 -19 68
-12 92 10 l23 21 -5 -23 c-3 -20 -2 -19 7 4 7 18 18 27 32 26 12 0 16 -3 9 -6
-10 -4 -9 -8 4 -17 14 -11 15 -16 4 -35 -7 -14 -17 -20 -26 -17 -18 7 -54 -10
-54 -25 0 -6 7 -4 15 5 14 14 45 12 45 -3 -1 -12 -27 -41 -32 -35 -4 3 -9 1
-13 -5 -3 -6 -1 -11 4 -11 6 0 11 -14 11 -31 0 -36 -21 -35 -31 2 -4 13 -7 17
-8 8 -1 -9 -8 -19 -16 -23 -8 -3 -22 -22 -32 -43 -12 -25 -25 -38 -38 -38 -41
0 -30 88 16 133 30 29 30 31 11 41 -68 36 -36 195 54 267 76 61 194 106 194
74z m271 -26 c10 -13 10 -17 -1 -24 -18 -11 -30 -3 -30 21 0 23 13 25 31 3z
m-481 -30 c0 -12 -58 -72 -64 -67 -10 10 -7 19 15 47 18 23 49 36 49 20z
m-140 -68 c0 -64 0 -64 -37 -83 -50 -25 -75 -62 -81 -122 -4 -45 -7 -51 -27
-51 -13 0 -50 -21 -84 -46 -33 -25 -75 -49 -93 -55 -47 -13 -119 -11 -148 6
-25 14 -24 14 10 9 54 -9 103 16 125 62 29 64 53 84 99 84 23 0 46 4 53 8 19
12 33 59 33 110 0 64 17 93 70 120 73 36 80 33 80 -42z m567 53 c6 -6 9 -18 6
-25 -7 -18 -43 0 -43 21 0 18 21 20 37 4z m66 -6 c4 -3 -3 -16 -16 -28 -12
-12 -26 -28 -32 -37 -5 -9 -21 -19 -35 -23 -21 -5 -22 -4 -7 5 9 6 24 25 33
43 22 41 42 56 57 40z m-333 -19 c0 -10 -28 -34 -39 -34 -12 0 -15 23 -4 33 8
8 43 9 43 1z m-233 -73 c-6 -17 -15 -28 -19 -25 -12 7 -10 28 4 42 20 20 27
13 15 -17z m233 -16 c0 -9 -8 -18 -17 -21 -10 -3 -26 -10 -35 -15 -10 -5 -25
-9 -33 -9 -9 0 -27 -12 -40 -26 l-24 -25 12 38 c16 55 23 62 75 66 26 2 50 4
55 5 4 1 7 -5 7 -13z m206 2 c-9 -7 -27 -30 -39 -52 -19 -34 -29 -41 -62 -45
-34 -4 -41 -10 -49 -35 -4 -16 -14 -41 -21 -55 -27 -53 32 -104 75 -65 18 16
21 16 59 -7 46 -27 44 -38 -5 -38 -18 0 -56 -9 -84 -20 -28 -11 -60 -20 -71
-20 -32 0 -89 62 -89 97 0 49 54 136 100 162 22 12 40 28 40 34 1 30 22 42 82
48 35 3 67 7 72 7 6 1 2 -4 -8 -11z m-171 -35 c0 -15 -56 -53 -67 -46 -4 3 -8
14 -8 25 0 21 20 25 38 7 9 -9 12 -7 12 11 0 14 5 21 13 19 6 -3 12 -10 12
-16z m-285 -38 c0 -40 -2 -45 -15 -34 -18 15 -19 34 -5 61 16 29 20 23 20 -27z
m346 -73 c10 -26 8 -30 -22 -55 -36 -28 -44 -24 -19 10 8 10 15 31 15 47 0 35
13 35 26 -2z m-325 -4 c16 -21 15 -24 -1 -45 -23 -28 -50 -19 -50 17 0 25 16
51 30 51 3 0 12 -11 21 -23z m909 -2 c36 -3 37 -4 20 -16 -12 -9 -11 -10 7 -6
12 3 30 -1 39 -8 16 -11 15 -14 -4 -33 -15 -15 -34 -22 -59 -22 -24 0 -45 -8
-60 -22 l-23 -21 -25 23 c-18 17 -25 34 -25 60 0 50 16 63 65 54 22 -4 51 -8
65 -9z m-324 -78 c-5 -22 -12 -25 -81 -30 -64 -6 -80 -4 -107 13 -28 17 -30
20 -13 26 10 4 38 2 62 -4 61 -17 87 -15 114 7 28 23 33 20 25 -12z m228 -51
c9 -14 16 -34 16 -46 0 -11 5 -20 10 -20 6 0 10 -5 10 -11 0 -5 -4 -7 -10 -4
-6 4 -10 -18 -10 -58 0 -56 -2 -65 -17 -63 -15 1 -19 -10 -23 -69 -4 -53 -7
-64 -12 -44 -8 29 -29 42 -52 33 -8 -3 -20 -29 -27 -57 -14 -61 -35 -107 -49
-107 -6 0 -3 11 6 25 31 47 -12 90 -48 48 -9 -10 -23 -42 -32 -70 -17 -52 -35
-78 -32 -47 0 9 -7 21 -17 28 -14 9 -24 7 -49 -7 l-31 -18 7 43 c5 29 15 49
32 62 14 10 37 43 51 72 24 50 28 54 105 85 61 24 85 40 99 63 26 42 24 55
-12 109 -27 40 -29 50 -18 63 32 39 73 35 103 -10z m-849 -5 c0 -22 -3 -37 -7
-35 -14 9 -8 74 6 74 1 0 1 -18 1 -39z m155 -15 c0 -22 27 -56 44 -56 7 0 11
-25 11 -65 l0 -65 -65 0 c-52 0 -73 -5 -105 -25 -53 -32 -61 -31 -33 5 60 79
82 101 111 108 43 11 48 32 5 23 -50 -12 -87 -34 -156 -95 -59 -53 -102 -76
-71 -40 8 9 28 44 44 78 27 56 34 62 80 78 27 10 51 21 53 25 1 5 11 23 22 41
18 29 22 31 40 20 11 -7 20 -21 20 -32z m-250 -76 c0 -121 -12 -140 -85 -140
-25 0 -45 -4 -45 -10 0 -5 6 -10 14 -10 8 0 18 -5 21 -10 4 -7 -18 -10 -63 -9
-51 1 -81 -4 -117 -20 -49 -22 -132 -27 -170 -11 -17 7 -14 9 13 9 18 1 63 17
99 36 52 27 78 35 119 35 64 0 77 11 135 120 36 67 66 110 76 110 1 0 3 -45 3
-100z m292 73 c22 -20 23 -33 3 -33 -12 0 -35 28 -35 44 0 11 13 6 32 -11z
m558 -35 c50 -68 22 -118 -90 -159 -63 -23 -86 -45 -113 -111 -8 -20 -24 -41
-35 -47 -18 -9 -20 -6 -26 36 -3 25 -6 61 -6 79 0 19 -9 57 -20 86 -11 28 -17
54 -15 56 7 8 99 20 108 15 13 -8 7 -80 -8 -93 -21 -17 -50 -8 -53 18 -3 21 1
24 38 26 17 1 27 46 11 46 -6 0 -8 -7 -5 -15 4 -10 0 -15 -14 -15 -28 0 -45
-25 -38 -55 5 -19 13 -25 35 -25 47 0 83 59 61 101 -10 17 -9 24 3 36 19 19
88 23 94 6 3 -8 -5 -13 -20 -13 -30 0 -45 -33 -27 -55 16 -20 65 -19 84 1 18
17 22 69 6 79 -12 7 -13 35 -2 35 5 0 19 -14 32 -32z m-42 -47 c-3 -34 -5 -36
-38 -36 -28 0 -35 4 -35 20 0 14 8 21 25 23 36 5 46 18 29 39 -13 17 -13 17 4
4 13 -10 17 -25 15 -50z m-404 28 c-7 -11 -51 -12 -58 -1 -3 4 11 9 30 9 18 1
31 -3 28 -8z m-1167 -111 c20 -19 23 -31 23 -93 0 -65 -3 -74 -27 -97 -16 -15
-40 -31 -55 -37 -24 -9 -27 -8 -25 12 1 12 13 37 26 55 28 40 25 98 -8 143
-27 37 -27 39 11 39 19 0 41 -9 55 -22z m-287 -198 c-6 -19 -10 -42 -8 -50 2
-10 -11 -16 -45 -21 -50 -8 -82 -28 -92 -59 -4 -11 -20 -20 -45 -24 -21 -3
-60 -17 -86 -31 -44 -24 -114 -34 -114 -17 0 4 13 13 29 19 19 7 37 26 51 52
23 47 50 61 116 61 60 0 78 11 119 75 19 30 45 65 57 77 l23 23 3 -35 c2 -19
-2 -51 -8 -70z m725 40 c-9 -27 2 -58 26 -70 15 -9 21 -7 26 7 8 22 23 33 46
33 15 0 18 -7 15 -47 l-3 -48 -43 -3 c-36 -3 -47 1 -72 27 -33 33 -38 65 -14
99 19 27 27 28 19 2z m-631 -26 c9 -3 16 -10 16 -15 0 -6 -9 -5 -20 1 -20 11
-60 -1 -60 -18 0 -15 23 -30 36 -25 8 3 14 -1 14 -11 0 -19 -40 -22 -58 -4
-39 39 16 94 72 72z m84 -6 c7 -7 12 -16 12 -22 0 -6 -5 -5 -12 2 -9 9 -16 8
-30 -5 -17 -15 -18 -15 -18 4 0 33 25 44 48 21z m1123 -51 c33 -22 34 -26 37
-92 2 -57 0 -72 -14 -82 -45 -33 -128 5 -122 56 4 32 41 41 67 17 16 -15 20
-15 30 -2 18 22 -3 80 -37 105 -39 29 -4 27 39 -2z m-1271 -47 c-20 -13 -7
-45 18 -44 20 1 21 -1 9 -13 -17 -17 -46 -7 -57 21 -10 27 5 57 26 49 11 -4
12 -8 4 -13z m180 -70 c-6 -11 -13 -20 -15 -20 -3 0 -5 9 -5 20 0 11 7 20 15
20 13 0 14 -4 5 -20z m1261 -10 c15 -9 19 -22 19 -66 0 -49 -2 -55 -26 -64
-41 -16 -62 -12 -80 15 -15 23 -15 27 1 51 12 19 23 25 41 21 30 -5 38 6 24
33 -12 23 -7 25 21 10z m-1886 -20 c13 -6 15 -9 5 -9 -8 0 -22 4 -30 9 -18 12
-2 12 25 0z m2053 -90 c-2 -7 -10 1 -17 16 -12 27 -11 28 4 12 10 -9 16 -21
13 -28z m-10 -81 c-25 -17 -53 -6 -53 21 0 21 4 25 28 23 15 -1 28 4 28 10 1
7 4 -1 6 -17 3 -17 -1 -32 -9 -37z m-894 -109 c5 -5 9 -21 10 -37 1 -20 7 -29
26 -33 24 -6 25 -7 3 -14 -53 -17 -110 24 -99 71 5 23 4 25 -5 10 -27 -45 32
-105 90 -94 32 7 77 -23 68 -45 -8 -21 -63 -30 -110 -17 -22 6 -55 8 -73 4
-19 -3 -43 -1 -54 5 l-21 11 21 28 c11 16 25 52 32 81 l12 52 45 -7 c25 -4 50
-11 55 -15z m95 -10 c20 -11 -22 -50 -53 -50 -21 0 -24 4 -23 34 1 33 2 34 31
29 17 -3 37 -9 45 -13z m-374 -29 c3 -10 2 -26 -1 -36 -9 -23 11 -35 61 -35
37 -1 39 -2 21 -15 -61 -46 -176 18 -148 80 14 31 58 35 67 6z"/>
<path d="M2666 1602 c-3 -5 8 -6 25 -4 16 2 29 6 29 8 0 8 -49 4 -54 -4z"/>
<path d="M3907 2130 c-77 -13 -110 -56 -82 -109 13 -27 13 -29 -10 -39 -18 -9
-31 -8 -55 4 -36 19 -86 11 -100 -16 -16 -30 -12 -108 6 -118 8 -5 21 -19 27
-32 7 -13 31 -30 57 -39 35 -13 49 -25 64 -55 10 -21 32 -46 47 -55 32 -18 38
-45 13 -55 -28 -11 -140 -6 -152 6 -7 7 -12 30 -12 52 0 47 -6 58 -37 75 -34
17 -45 13 -23 -9 24 -24 18 -44 -8 -30 -9 5 -29 11 -44 14 -14 3 -29 14 -31
24 -3 10 -5 7 -6 -10 -1 -22 7 -33 40 -54 40 -25 41 -27 35 -67 -11 -64 -8
-91 13 -107 11 -8 21 -24 23 -35 2 -13 12 -20 26 -21 19 -1 19 -1 2 3 -12 2
-20 13 -20 24 0 29 56 27 64 -3 4 -15 9 -19 14 -11 4 6 19 9 35 6 21 -4 27
-10 22 -22 -5 -13 -4 -14 6 -3 19 18 59 15 97 -8 26 -16 32 -26 32 -53 0 -34
21 -64 65 -93 16 -10 51 -17 97 -18 56 -2 85 -9 125 -29 59 -30 133 -46 133
-28 0 11 -32 16 -75 13 -16 -2 -17 0 -5 7 12 9 12 11 -3 16 -19 8 -62 73 -53
82 3 3 30 -16 59 -43 63 -57 139 -84 230 -84 93 0 168 -49 152 -100 -8 -26
-27 -25 -43 0 -32 52 -119 0 -93 -56 13 -28 71 -57 98 -48 68 22 99 64 89 120
-6 27 -4 33 11 33 10 0 47 2 83 4 75 4 115 -10 124 -47 13 -53 -24 -99 -75
-94 -69 7 -64 75 5 71 32 -2 36 0 36 21 0 13 -8 30 -17 37 -15 11 -16 11 -5
-1 6 -8 12 -22 12 -32 0 -14 -6 -16 -30 -12 -37 8 -60 -9 -60 -45 0 -36 17
-51 58 -51 47 0 69 14 81 53 14 41 2 78 -31 101 -34 24 -1 20 57 -8 28 -13 86
-49 129 -80 44 -31 90 -56 103 -56 34 0 77 25 97 54 15 24 56 37 56 18 0 -5
-10 -8 -22 -8 -18 1 -23 -5 -23 -24 0 -20 -10 -30 -55 -52 -65 -33 -75 -34
-117 -8 -46 28 -41 8 6 -24 76 -53 104 -181 59 -267 -13 -25 -22 -61 -22 -90
-1 -54 15 -74 72 -85 53 -10 43 -40 -43 -128 -72 -72 -95 -85 -122 -68 -16 10
6 80 28 87 26 8 40 51 28 79 -15 33 -46 39 -70 15 -13 -13 -17 -27 -13 -44 6
-23 3 -25 -32 -26 -61 -2 -87 2 -116 17 -33 17 -45 34 -18 27 46 -12 130 25
130 58 0 6 -10 -2 -23 -16 -28 -34 -101 -45 -132 -21 -19 15 -18 15 20 16 51
0 69 12 61 37 -17 54 41 75 68 26 8 -16 15 -23 16 -18 0 22 -32 55 -54 55 -31
0 -48 -22 -44 -57 3 -26 0 -28 -36 -31 -50 -4 -82 13 -96 51 -15 44 -13 46 23
41 38 -6 93 20 115 53 8 13 10 23 6 23 -5 0 -14 -10 -19 -22 -13 -29 -81 -53
-110 -39 l-20 10 20 0 c11 1 30 8 42 16 19 13 21 19 11 40 -16 35 -4 57 29 53
20 -2 29 -9 31 -26 2 -12 7 -22 12 -22 10 0 3 28 -13 48 -13 16 -52 15 -66 -2
-7 -8 -11 -29 -9 -47 2 -22 -2 -35 -14 -43 -28 -17 -49 3 -79 78 -15 37 -36
77 -46 88 -23 26 -71 51 -86 44 -7 -2 -5 -5 5 -5 44 -2 109 -88 123 -163 7
-36 7 -37 -32 -43 -21 -3 -84 -15 -141 -25 -84 -17 -111 -18 -147 -9 -41 10
-43 12 -33 34 19 43 1 93 -53 145 -31 30 -49 55 -49 71 0 46 -23 1 -32 -63 -5
-40 -14 -68 -25 -76 -13 -9 -60 -12 -173 -10 -141 2 -160 1 -208 -20 -88 -37
-182 -24 -200 28 -12 32 -4 43 36 53 18 4 25 -1 36 -28 15 -36 44 -50 82 -41
19 5 24 13 24 36 0 26 -5 31 -30 36 -36 8 -37 17 -5 49 32 32 63 33 71 1 8
-31 31 -52 69 -60 29 -6 29 -6 -5 12 -32 15 -35 22 -38 64 -3 39 1 49 20 62
31 22 41 20 28 -4 -14 -27 -5 -40 22 -32 16 4 28 -3 45 -24 l24 -29 -12 28
c-8 18 -23 30 -41 34 -33 6 -35 14 -10 36 26 24 41 21 48 -8 16 -63 108 -87
158 -40 28 25 34 63 14 83 -15 15 -61 15 -76 0 -9 -9 -12 -6 -12 14 0 34 33
72 85 98 l40 21 -48 -4 c-74 -7 -138 -44 -162 -95 -15 -32 -25 -42 -43 -42
-29 0 -59 -15 -94 -47 -37 -35 -59 -27 -82 32 -17 41 -20 74 -20 190 -1 132 1
143 27 200 15 33 35 67 43 76 13 15 13 17 -6 22 -11 3 -18 1 -15 -4 3 -5 1
-17 -5 -28 -10 -19 -12 -19 -46 -5 -20 8 -48 14 -63 13 -14 -2 -38 5 -54 15
-15 10 -47 21 -70 23 -35 4 -47 11 -65 39 -13 19 -34 39 -47 44 -18 7 -25 17
-25 38 0 15 -7 38 -16 51 -16 22 -20 23 -98 16 -90 -7 -126 -24 -126 -59 0
-32 30 -56 71 -56 36 0 79 -23 79 -42 0 -6 -16 -28 -35 -49 -45 -50 -51 -78
-29 -126 l19 -38 5 35 c13 76 41 83 33 8 -3 -36 0 -64 10 -88 15 -34 15 -34
16 -8 2 72 28 77 28 5 0 -53 11 -86 41 -119 22 -26 36 -22 18 4 -9 12 -16 37
-16 55 0 26 4 33 19 33 16 0 22 -12 32 -57 14 -61 53 -113 84 -113 14 0 14 4
-4 26 -25 31 -28 74 -6 74 15 0 28 -24 55 -97 6 -17 22 -41 35 -53 l24 -23 -6
37 c-7 42 7 47 55 19 20 -12 34 -31 42 -58 7 -22 16 -45 21 -51 7 -8 0 -15
-20 -22 -16 -6 -37 -22 -46 -35 -16 -26 -55 -38 -130 -42 -22 -1 -47 -5 -56
-9 -24 -11 -49 20 -49 60 0 20 -4 43 -10 53 -10 20 -67 47 -76 38 -4 -3 10
-12 29 -21 33 -13 36 -18 42 -70 5 -34 13 -60 23 -65 10 -6 13 -16 9 -31 -7
-28 15 -75 40 -85 15 -5 12 -10 -17 -25 -45 -24 -59 -24 -84 -1 -12 10 -32 22
-46 26 -30 9 -26 4 23 -29 44 -30 62 -32 117 -10 48 19 58 14 96 -52 31 -52
79 -84 125 -83 l34 1 -38 15 c-38 16 -55 47 -43 78 8 22 54 18 74 -7 49 -62
71 -78 106 -78 19 0 38 5 41 10 3 6 -4 10 -18 10 -13 0 -32 9 -42 20 -17 19
-17 21 0 40 25 28 39 25 84 -15 26 -24 48 -35 67 -34 25 0 26 1 9 9 -27 11
-48 37 -40 50 15 24 61 9 112 -35 51 -45 94 -58 109 -33 5 8 -4 10 -32 5 -21
-3 -34 -3 -28 -1 7 3 10 14 7 24 -8 31 43 38 88 12 48 -28 90 -28 115 -1 18
20 18 20 -9 14 -33 -9 -48 18 -25 42 13 13 24 13 69 3 30 -7 68 -10 84 -8 25
2 35 -3 58 -34 15 -21 27 -40 27 -43 0 -3 -12 -5 -27 -5 -14 0 -35 -8 -45 -17
-18 -16 -22 -16 -66 0 -58 21 -82 21 -108 2 -15 -11 -16 -14 -3 -15 8 0 20 5
27 12 9 9 24 8 68 -7 47 -16 59 -25 70 -52 9 -20 28 -40 51 -51 l37 -19 -26
-26 c-30 -30 -93 -45 -120 -28 -22 14 -24 -1 -2 -19 22 -19 119 12 140 45 l16
24 31 -20 c18 -10 46 -19 62 -19 l30 0 -24 13 c-28 14 -40 37 -19 37 7 0 31
-11 53 -25 42 -26 99 -32 125 -14 11 8 3 9 -31 4 -38 -5 -51 -2 -83 20 -50 34
-80 37 -84 8 -2 -13 -7 -23 -11 -23 -15 0 -51 47 -51 67 0 17 9 22 53 28 28 5
72 7 97 7 25 -1 55 3 66 9 18 9 29 6 62 -16 22 -14 42 -35 45 -46 3 -10 11
-19 17 -19 10 0 10 3 0 15 -10 12 -10 15 1 15 8 0 20 -4 28 -9 11 -7 9 -11 -9
-21 -21 -11 -39 -10 -116 5 -34 7 -54 -9 -35 -28 8 -8 11 -6 11 7 0 14 5 17
23 11 12 -4 45 -9 72 -12 39 -4 54 -1 64 11 13 16 81 23 94 10 8 -8 -8 -39
-34 -65 -10 -10 -19 -25 -19 -33 0 -17 -51 -36 -96 -36 -23 0 -37 -6 -44 -20
-9 -16 -8 -18 5 -14 8 4 15 10 15 15 0 5 18 9 39 9 22 0 51 4 64 9 19 7 27 6
30 -3 3 -7 23 -22 45 -33 l39 -19 -14 -36 c-10 -25 -24 -40 -45 -47 -17 -6
-33 -9 -36 -6 -8 8 -42 -15 -41 -28 0 -9 2 -9 6 1 2 6 16 12 29 12 49 0 91 26
103 63 10 28 19 37 44 43 18 3 50 15 71 26 28 14 51 19 79 15 38 -5 38 -5 20
15 -14 16 -27 19 -61 15 -35 -4 -41 -2 -31 9 6 8 19 14 28 14 24 0 114 44 130
63 16 20 12 21 -25 7 -27 -11 -54 1 -54 22 0 19 91 50 136 46 24 -2 44 0 44 5
0 11 -47 27 -62 22 -7 -3 -20 0 -28 5 -13 9 -11 14 13 35 31 27 47 30 80 14
21 -10 21 -9 -2 10 -13 12 -35 21 -50 21 -37 0 -53 14 -49 41 3 22 7 24 53 22
38 -2 45 0 29 7 -12 5 -25 13 -28 19 -4 6 -25 15 -46 21 -26 7 -40 17 -40 27
0 13 8 15 43 10 23 -3 49 -2 57 3 12 8 10 10 -10 11 -14 1 -31 2 -37 2 -7 -1
-10 3 -7 8 8 13 -42 22 -83 14 -33 -6 -35 -5 -24 9 8 9 29 16 50 16 27 0 32 3
21 10 -23 15 -93 12 -118 -6 -21 -15 -22 -14 -22 18 0 18 -4 48 -10 66 l-9 33
39 -35 c50 -45 101 -61 157 -48 39 9 45 8 73 -19 34 -33 46 -34 115 -14 47 14
48 15 10 10 -22 -3 -49 -8 -61 -11 -15 -4 -31 4 -55 25 -37 34 -50 37 -99 20
-25 -9 -34 -9 -40 2 -5 7 -6 17 -4 21 3 4 -1 8 -8 8 -10 0 -10 2 0 9 8 4 14
12 14 16 0 4 -6 12 -14 16 -10 7 -10 9 0 9 7 0 11 4 8 9 -3 5 10 21 29 35 23
18 35 35 35 52 0 25 19 31 68 18 25 -7 52 -51 52 -84 0 -11 11 -32 25 -45 20
-21 34 -25 79 -25 l56 0 25 -50 c31 -61 63 -84 107 -76 l33 6 -30 -15 c-41
-19 -15 -19 35 1 22 9 50 14 62 11 20 -6 20 -5 5 11 -15 14 -24 15 -76 4 -32
-7 -66 -10 -74 -6 -9 3 -30 30 -46 59 -17 29 -35 56 -40 59 -5 3 -33 8 -63 11
-54 5 -88 29 -88 62 0 20 55 10 111 -19 58 -30 115 -33 174 -10 28 10 56 17
64 14 9 -3 11 0 6 8 -5 9 -25 10 -72 5 -59 -6 -67 -5 -89 16 -34 32 -30 45 14
42 l37 -2 -35 8 c-20 4 -49 17 -65 29 -18 13 -52 24 -85 27 -80 8 -81 9 -124
75 -50 78 -85 107 -142 116 -31 4 -42 9 -33 15 11 7 11 9 -1 9 -13 0 -13 1 0
10 13 9 13 10 0 10 -13 0 -13 1 0 10 13 9 13 10 0 10 -13 0 -13 1 0 10 13 9
13 10 0 10 -12 1 -12 2 2 10 23 14 108 -6 150 -34 25 -16 38 -38 55 -86 29
-84 41 -92 123 -84 l65 6 49 -46 c39 -37 55 -46 84 -46 39 0 36 -9 -13 -34
-16 -9 -23 -16 -15 -16 22 0 92 49 85 60 -3 5 11 6 31 3 28 -5 35 -3 29 6 -5
9 -19 11 -41 7 -112 -20 -100 -22 -155 29 l-51 47 -67 -6 c-79 -8 -80 -7 -111
77 -12 32 -34 69 -48 83 -51 47 -169 68 -235 41 -18 -7 -50 -12 -73 -9 -33 3
-46 -1 -72 -22 -36 -32 -56 -84 -47 -127 10 -44 59 -95 110 -115 46 -17 81
-13 69 8 -5 10 -4 10 5 2 15 -14 4 -44 -18 -46 -38 -3 -57 5 -131 57 -101 71
-154 95 -214 95 l-48 0 23 21 c21 18 21 20 4 14 -62 -21 -93 -18 -167 19 -50
24 -87 36 -116 36 -24 0 -52 4 -62 10 -15 8 -60 72 -60 86 0 2 18 4 40 4 29 0
48 -7 74 -30 44 -39 95 -60 146 -60 37 0 100 23 100 36 0 2 -14 -3 -32 -12
-22 -11 -48 -15 -84 -12 -43 4 -63 12 -108 47 -45 35 -64 43 -95 43 -38 -1
-41 2 -70 53 -17 29 -46 66 -66 80 l-35 27 0 89 c0 49 4 89 9 89 5 0 21 -14
35 -31 22 -26 26 -40 26 -99 0 -90 22 -120 95 -127 76 -7 102 -21 135 -73 17
-27 44 -53 60 -60 28 -12 89 -10 140 5 20 5 22 5 10 -5 -12 -10 -12 -11 5 -4
11 4 35 8 53 8 17 1 32 4 32 8 0 16 -67 18 -109 4 -24 -9 -62 -16 -84 -16 -42
0 -43 1 -124 98 -24 28 -38 34 -88 42 -33 4 -67 11 -76 15 -16 6 -39 45 -39
65 0 19 47 10 81 -15 92 -66 123 -80 189 -83 59 -3 69 -1 113 28 56 38 56 47
2 24 -42 -17 -96 -14 -122 7 -8 7 -25 34 -39 61 -27 53 -48 68 -96 68 -51 0
-67 17 -74 83 l-7 58 27 -11 c43 -16 78 -12 121 15 22 13 56 25 75 25 l35 0
-25 20 c-20 16 -38 19 -90 18 -59 -3 -69 0 -102 27 -27 21 -34 32 -27 42 18
21 78 35 117 28 l37 -7 -28 22 c-25 20 -36 22 -85 17 -31 -3 -66 -9 -78 -12
-14 -5 -36 5 -75 35 -54 40 -54 41 -134 38 -72 -2 -84 0 -122 25 -55 35 -101
35 -143 1 -30 -25 -32 -26 -48 -10 -16 16 -16 18 7 37 13 10 29 19 37 19 8 0
14 5 14 10 0 6 -3 9 -7 9 -5 -1 -30 -5 -56 -9z m-5 -22 c-18 -18 -14 -46 8
-60 25 -16 26 -28 1 -28 -10 0 -24 -7 -31 -15 -19 -23 -30 -8 -30 45 0 50 14
69 50 70 11 0 11 -3 2 -12z m214 -59 c30 -18 44 -20 107 -14 l72 6 60 -41 c40
-28 66 -39 80 -35 11 3 49 8 85 10 l65 5 -47 -13 c-25 -7 -58 -21 -73 -31 -38
-25 -77 -15 -154 39 -71 49 -99 54 -150 27 -19 -10 -46 -16 -62 -14 -26 4 -29
8 -29 43 0 22 3 39 6 39 4 0 22 -9 40 -21z m-177 -53 c14 -17 5 -43 -19 -56
-16 -8 -20 -5 -25 21 -5 22 -3 34 6 40 19 12 25 11 38 -5z m97 -12 c18 -15 18
-15 -6 -10 -14 3 -31 6 -38 6 -7 0 -10 5 -7 10 9 14 28 12 51 -6z m267 -24
c35 -26 74 -44 106 -50 28 -5 69 -23 92 -39 38 -28 45 -30 103 -24 42 4 66 2
70 -6 4 -7 0 -11 -11 -11 -10 0 -36 -11 -58 -25 -67 -41 -132 -29 -153 29 -17
46 -80 79 -151 79 -31 0 -63 -2 -71 -4 -12 -3 -16 7 -18 44 -3 41 -1 47 16 47
10 0 44 -18 75 -40z m-425 8 c15 -15 16 -38 2 -38 -5 0 -10 7 -10 16 0 11 -6
14 -20 9 -21 -7 -28 10 -7 18 19 8 22 8 35 -5z m251 -12 c33 -35 18 -51 -22
-23 -18 12 -34 23 -36 24 -1 1 0 6 4 12 10 18 30 13 54 -13z m-227 -86 c10
-19 18 -28 18 -20 -1 8 -7 26 -14 40 -13 23 -12 26 15 42 16 10 29 23 29 29 0
16 64 3 114 -23 90 -46 141 -105 165 -192 13 -49 5 -91 -25 -119 l-23 -22 30
-31 c20 -21 32 -45 35 -70 9 -73 -32 -86 -60 -19 -8 19 -22 38 -31 41 -8 3
-15 14 -16 23 -1 9 -4 5 -8 -8 -10 -37 -31 -38 -31 -2 0 17 5 31 11 31 5 0 7
5 4 10 -4 6 -10 8 -15 5 -8 -5 -30 24 -30 38 0 14 32 14 45 1 8 -9 15 -11 15
-5 0 15 -36 32 -54 25 -9 -3 -19 3 -26 17 -11 19 -10 24 4 35 13 9 14 13 4 17
-7 3 -3 6 10 6 12 1 22 -4 22 -10 0 -5 4 -8 9 -5 4 3 16 -3 26 -14 20 -22 79
-28 91 -9 4 8 -1 9 -15 4 -28 -9 -48 8 -57 48 -10 47 -20 55 -80 63 -30 3 -54
10 -54 16 0 5 6 8 13 7 42 -5 52 29 16 55 -44 30 -110 -24 -73 -61 18 -19 18
-37 -1 -53 -15 -13 -19 -8 -16 21 1 12 -13 16 -81 18 -45 1 -85 4 -88 7 -3 3
7 15 23 26 45 33 35 90 -18 100 -11 2 -21 11 -23 20 -3 13 9 10 60 -15 47 -24
68 -41 80 -67z m-192 61 c0 -24 -12 -32 -30 -21 -11 7 -11 11 -1 24 18 22 31
20 31 -3z m503 -53 c30 -41 11 -53 -23 -14 -17 19 -30 37 -30 41 0 15 34 -2
53 -27z m-443 7 c0 -21 -36 -39 -43 -21 -6 16 11 36 30 36 7 0 13 -7 13 -15z
m610 -7 c53 -27 70 -56 70 -120 0 -51 14 -98 33 -110 7 -4 30 -8 53 -8 45 0
65 -17 99 -84 24 -46 72 -71 125 -62 34 5 35 5 10 -9 -29 -17 -101 -19 -148
-6 -18 6 -60 30 -93 55 -34 25 -71 46 -84 46 -20 0 -23 6 -27 51 -6 61 -31 97
-84 124 l-39 20 0 63 c-1 56 1 62 20 62 11 0 41 -10 65 -22z m-676 -4 c9 -8
16 -22 16 -29 0 -7 12 -23 28 -36 l27 -21 -25 7 c-14 4 -29 14 -35 23 -5 9
-20 25 -32 37 -13 12 -20 25 -16 28 10 11 20 8 37 -9z m344 -27 c2 -10 -3 -17
-12 -17 -9 0 -16 2 -16 4 0 2 -3 12 -6 21 -5 13 -2 16 12 13 10 -2 20 -11 22
-21z m206 -50 c7 -11 7 -20 0 -27 -6 -6 -13 0 -21 21 -13 33 1 37 21 6z m-347
-23 c14 -2 25 -14 29 -29 4 -15 23 -35 46 -49 46 -27 98 -112 98 -159 0 -35
-57 -97 -89 -97 -11 0 -43 9 -71 20 -28 11 -66 20 -85 20 -49 0 -50 13 -4 39
38 22 41 22 59 6 43 -39 102 12 75 65 -7 14 -17 39 -21 55 -8 25 -15 31 -49
35 -33 4 -43 11 -62 45 -12 22 -29 45 -37 51 -12 9 -4 10 37 7 28 -2 62 -6 74
-9z m211 -7 c4 -7 13 -29 19 -50 l12 -38 -24 25 c-13 14 -33 26 -44 26 -11 0
-23 5 -26 10 -3 6 -15 10 -26 10 -11 0 -19 7 -19 18 0 14 8 16 50 14 27 -2 53
-9 58 -15z m-128 -29 c0 -17 3 -19 12 -10 18 18 38 14 38 -7 0 -30 -12 -32
-48 -9 -32 20 -38 29 -25 41 13 13 23 7 23 -15z m290 -39 c0 -9 -7 -22 -15
-29 -13 -11 -15 -6 -15 36 1 45 2 48 15 30 8 -11 15 -27 15 -37z m-350 -66 c0
-16 7 -37 15 -47 25 -34 17 -38 -19 -10 -30 25 -32 29 -22 55 13 37 26 37 26
2z m338 5 c17 -17 15 -65 -4 -72 -10 -4 -23 3 -34 16 -16 21 -17 24 -1 45 19
26 23 27 39 11z m-830 -10 c22 -22 14 -82 -13 -108 l-25 -23 -23 21 c-15 14
-36 22 -60 22 -25 0 -44 7 -59 22 -19 19 -20 22 -4 33 9 7 27 11 39 8 16 -3
18 -2 8 5 -14 10 2 28 17 18 4 -2 23 -1 42 4 51 12 65 11 78 -2z m278 -88 c13
0 43 5 67 12 24 6 52 8 62 4 17 -6 15 -9 -13 -26 -28 -17 -43 -19 -105 -14
-73 7 -87 14 -87 47 0 17 2 17 26 -2 15 -12 37 -21 50 -21z m-200 -31 c15 -17
15 -21 -15 -65 -36 -55 -38 -68 -12 -110 14 -23 38 -39 98 -63 76 -31 81 -34
104 -83 13 -27 36 -60 51 -71 19 -15 29 -35 34 -65 l7 -43 -31 18 c-25 14 -35
16 -49 7 -10 -7 -17 -19 -17 -28 3 -30 -14 -6 -30 42 -9 26 -23 58 -32 70 -34
49 -82 6 -50 -43 9 -14 12 -25 6 -25 -14 0 -35 46 -49 107 -7 28 -19 54 -27
57 -22 9 -42 -4 -53 -32 -8 -22 -10 -16 -10 40 -1 52 -5 69 -18 77 -13 7 -17
23 -18 63 0 37 -4 52 -12 51 -18 -4 -16 14 2 21 8 3 15 17 15 31 0 34 41 75
68 68 12 -3 28 -13 38 -24z m764 -19 c0 -16 -3 -31 -8 -34 -4 -2 -7 13 -7 34
0 21 3 36 7 34 5 -3 8 -18 8 -34z m-100 -26 c0 -13 17 -23 93 -53 20 -8 35
-27 53 -69 14 -31 33 -65 41 -74 35 -39 -10 -15 -69 38 -69 61 -106 83 -156
95 -44 10 -38 -10 8 -25 23 -7 49 -31 82 -73 27 -35 45 -63 41 -63 -5 0 -26
12 -48 25 -32 20 -53 25 -107 25 l-68 0 0 65 c0 43 4 65 12 65 19 0 48 32 48
53 0 11 8 26 18 33 15 11 19 10 35 -7 9 -12 17 -28 17 -35z m257 -71 c60 -111
73 -123 137 -123 41 0 67 -8 119 -35 36 -19 81 -35 99 -36 27 0 30 -2 13 -9
-35 -15 -124 -11 -158 7 -18 10 -68 20 -117 24 -59 4 -78 8 -62 14 36 12 25
25 -21 25 -73 0 -80 11 -81 133 -1 125 5 125 71 0z m-337 91 c0 -19 -24 -44
-42 -44 -21 0 -21 0 2 25 22 23 40 32 40 19z m-550 -28 c0 -8 -4 -18 -10 -21
-16 -10 -12 -62 6 -79 19 -20 68 -21 84 -1 18 22 3 55 -27 55 -35 0 -24 24 14
28 18 2 39 -4 53 -16 19 -16 21 -21 11 -41 -23 -42 13 -101 60 -101 22 0 30 6
35 25 7 30 -10 55 -38 55 -14 0 -18 5 -14 15 3 8 1 15 -5 15 -16 0 -6 -45 11
-46 35 -2 40 -5 40 -23 0 -26 -15 -34 -46 -27 -23 6 -25 11 -22 54 l3 47 35
-3 c19 -1 45 -5 57 -7 l21 -5 -19 -55 c-10 -30 -19 -70 -19 -88 0 -19 -3 -55
-6 -80 -6 -42 -8 -45 -26 -36 -11 6 -27 27 -35 47 -28 68 -50 89 -118 113
-106 37 -135 90 -85 157 26 34 40 41 40 18z m20 -21 c-16 -19 -5 -32 30 -37
17 -2 25 -9 25 -23 0 -16 -7 -20 -35 -20 -32 0 -35 3 -38 33 -3 29 11 62 25
62 3 0 0 -7 -7 -15z m444 -17 c-7 -11 -51 -10 -58 1 -3 5 10 9 28 8 19 0 33
-5 30 -9z m1196 -93 c0 -3 -9 -18 -21 -34 -33 -45 -36 -103 -8 -143 13 -18 25
-43 26 -55 2 -20 -1 -21 -25 -12 -15 6 -39 22 -54 37 -25 23 -28 32 -28 96 0
84 21 116 77 116 18 0 33 -2 33 -5z m265 -195 c54 -81 67 -90 129 -90 66 0 93
-14 116 -61 14 -26 32 -45 51 -52 16 -6 29 -15 29 -19 0 -17 -70 -7 -114 17
-26 14 -65 28 -86 31 -25 4 -41 13 -45 24 -10 30 -42 51 -90 58 -52 8 -47 -3
-59 125 -5 56 16 47 69 -33z m-755 -27 c0 -14 -13 -37 -30 -54 -25 -26 -36
-30 -72 -27 l-43 3 -3 48 c-2 36 0 47 12 47 25 0 46 -12 46 -25 0 -24 19 -26
40 -5 16 16 20 29 15 53 l-6 32 21 -24 c11 -13 20 -34 20 -48z m558 -8 l3 -30
-16 23 c-13 18 -20 21 -31 11 -17 -14 -19 2 -2 19 20 20 43 9 46 -23z m106 19
c31 -31 13 -74 -31 -74 -14 0 -23 6 -23 16 0 10 6 14 14 11 13 -5 36 10 36 25
0 17 -40 29 -60 18 -12 -6 -20 -7 -20 -1 0 23 62 27 84 5z m-1236 -45 c-34
-25 -55 -83 -37 -105 10 -13 14 -13 30 2 26 24 63 15 67 -17 6 -51 -77 -89
-122 -56 -14 10 -16 25 -14 82 3 66 4 70 37 92 43 29 78 31 39 2z m1260 -84
c-12 -27 -31 -37 -53 -29 -23 9 -18 21 8 20 16 -1 23 5 25 22 2 13 -2 22 -10
22 -10 0 -9 3 2 10 23 15 42 -15 28 -45z m-188 -35 c0 -11 -2 -20 -5 -20 -2 0
-9 9 -15 20 -9 16 -8 20 5 20 8 0 15 -9 15 -20z m630 -30 c-8 -5 -22 -9 -30
-9 -10 0 -8 3 5 9 27 12 43 12 25 0z m-1449 -167 c16 -44 10 -69 -26 -102 -40
-36 -45 -68 -12 -81 20 -8 19 -9 -10 -9 -18 -1 -47 8 -65 19 -56 34 -108 22
-108 -24 0 -17 -5 -15 -37 16 -47 46 -80 59 -111 45 -18 -8 -22 -17 -19 -35 4
-22 3 -22 -25 7 -34 35 -62 39 -90 14 -22 -20 -23 -41 -1 -65 9 -10 11 -18 5
-18 -6 0 -29 22 -52 49 -47 56 -83 68 -111 40 -21 -21 -25 -54 -9 -64 6 -3 10
-11 10 -17 0 -7 -6 -6 -15 2 -9 7 -15 29 -15 54 0 30 -3 37 -10 26 -9 -13 -10
-13 -10 0 0 8 6 31 13 50 12 35 12 35 68 32 38 -2 72 3 107 17 71 28 136 35
222 22 109 -16 175 4 185 55 2 10 4 35 4 55 l1 36 51 -50 c28 -27 55 -61 60
-74z m-613 91 c-7 -15 -14 -21 -16 -15 -2 7 2 18 8 26 18 22 21 18 8 -11z m22
-50 c16 1 26 -5 28 -18 5 -26 -12 -40 -42 -32 -21 5 -26 12 -26 39 0 17 4 27
8 21 4 -6 18 -11 32 -10z m1500 -29 c-20 -24 -2 -34 53 -29 l52 6 -24 -20
c-31 -25 -22 -50 19 -58 39 -8 46 -20 16 -28 -46 -12 -38 -65 14 -85 17 -7 19
-10 8 -10 -26 -1 -53 -47 -39 -65 10 -11 5 -16 -22 -25 -48 -16 -75 -47 -60
-69 6 -9 20 -17 32 -16 34 1 12 -13 -59 -38 -42 -15 -66 -29 -68 -41 -2 -11 3
-17 15 -17 32 -1 -50 -39 -84 -40 -32 0 -33 1 -33 45 0 25 5 45 11 45 13 0
152 146 160 169 11 27 -9 50 -52 61 -48 13 -60 38 -49 98 9 52 32 88 73 112
38 24 54 26 37 5z m-523 -155 c7 -28 22 -64 33 -80 l21 -29 -21 -11 c-11 -6
-35 -8 -54 -5 -18 4 -51 2 -73 -4 -47 -13 -102 -4 -110 17 -9 22 36 52 68 45
58 -11 117 49 90 94 -9 15 -10 14 -5 -10 11 -48 -41 -85 -100 -71 l-31 8 30 5
c24 5 30 11 31 34 1 33 10 44 44 50 62 11 65 10 77 -43z m-130 5 c1 -31 -2
-35 -23 -35 -24 0 -71 37 -60 47 4 4 46 16 77 22 3 1 5 -15 6 -34z m484 -116
c22 -42 -23 -80 -93 -78 l-43 1 39 12 c41 13 55 29 37 41 -15 9 -14 21 4 39
18 18 41 11 56 -15z m156 -225 c-3 -3 -12 -4 -19 -1 -8 3 -5 6 6 6 11 1 17 -2
13 -5z"/>
<path d="M3320 1606 c0 -2 13 -6 29 -8 17 -2 28 -1 25 4 -5 8 -54 12 -54 4z"/>
<path d="M2726 1851 c-63 -66 -18 -140 111 -181 96 -31 270 -31 366 -1 130 42
176 120 108 185 l-30 28 -39 -41 c-21 -22 -47 -41 -56 -41 -13 0 -16 -6 -12
-20 3 -11 9 -30 12 -41 4 -14 2 -19 -4 -15 -6 3 -13 19 -17 35 -6 28 -8 29
-43 23 -20 -4 -66 -7 -102 -7 -36 0 -82 3 -102 7 -35 6 -37 5 -43 -23 -4 -16
-11 -29 -16 -29 -9 0 -7 17 8 58 3 7 -3 12 -12 12 -10 0 -35 18 -56 40 -21 22
-40 40 -42 40 -2 0 -16 -13 -31 -29z m40 -36 c-9 -14 -21 -25 -27 -25 -11 0
-4 15 19 43 22 25 28 12 8 -18z m534 -14 c-1 -12 -5 -10 -20 8 -26 30 -26 49
0 26 11 -10 20 -25 20 -34z m-283 -88 c-3 -10 -5 -2 -5 17 0 19 2 27 5 18 2
-10 2 -26 0 -35z"/>
<path d="M2669 1793 c-13 -16 -12 -17 4 -4 9 7 17 15 17 17 0 8 -8 3 -21 -13z"/>
<path d="M2830 1640 c0 -5 5 -10 11 -10 5 0 7 5 4 10 -3 6 -8 10 -11 10 -2 0
-4 -4 -4 -10z"/>
<path d="M3195 1641 c-3 -5 -1 -12 5 -16 5 -3 10 1 10 9 0 18 -6 21 -15 7z"/>
<path d="M2987 1571 c3 -11 11 -22 19 -25 21 -8 41 3 47 25 4 16 0 19 -33 19
-33 0 -37 -3 -33 -19z m51 -3 c-3 -7 -11 -13 -18 -13 -7 0 -15 6 -17 13 -3 7
4 12 17 12 13 0 20 -5 18 -12z"/>
<path d="M2248 1443 c7 -3 16 -2 19 1 4 3 -2 6 -13 5 -11 0 -14 -3 -6 -6z"/>
<path d="M3778 1443 c7 -3 16 -2 19 1 4 3 -2 6 -13 5 -11 0 -14 -3 -6 -6z"/>
<path d="M2131 1290 l-2 -55 -18 23 c-11 12 -23 22 -27 22 -4 0 0 -8 8 -17 41
-47 45 -131 12 -225 -26 -73 -2 -49 27 27 l11 30 14 -40 c27 -73 42 -69 17 5
-15 44 -27 111 -32 178 -6 73 -9 90 -10 52z"/>
<path d="M3898 1239 c-4 -70 -15 -131 -31 -178 -13 -39 -22 -71 -20 -71 6 0
43 81 44 97 0 20 4 14 34 -61 24 -61 27 -38 4 34 -24 77 -20 150 11 192 11 16
16 28 11 28 -6 0 -16 -10 -23 -22 -12 -21 -13 -19 -18 32 -4 48 -6 41 -12 -51z"/>
<path d="M3002 1218 c-7 -7 -12 -18 -12 -25 0 -7 -5 -13 -11 -13 -6 0 -9 -10
-7 -22 3 -20 10 -23 46 -25 50 -2 64 17 37 47 -10 11 -15 20 -10 20 4 0 2 7
-5 15 -15 18 -22 19 -38 3z"/>
<path d="M1142 1148 c-7 -7 -12 -22 -12 -35 0 -20 5 -22 36 -20 72 4 73 -65 2
-71 -29 -2 -40 2 -57 24 -11 15 -21 22 -21 15 0 -24 40 -51 78 -51 45 0 62 14
62 51 0 36 -23 53 -60 45 -24 -4 -30 -2 -30 12 0 10 5 23 12 30 7 7 10 12 7
12 -3 0 -10 -5 -17 -12z"/>
<path d="M2963 1080 c-112 -23 -197 -108 -223 -225 -14 -63 -18 -115 -10 -115
4 0 15 -21 25 -47 24 -63 98 -135 160 -156 99 -34 218 -14 291 50 33 28 72 85
79 116 4 15 12 31 19 35 12 8 17 54 4 46 -4 -3 -8 12 -8 33 0 166 -168 296
-337 263z m173 -85 c119 -70 149 -244 51 -291 -70 -34 -157 16 -157 89 0 46
-31 97 -71 119 -41 22 -75 23 -113 3 -16 -9 -31 -13 -34 -11 -9 10 95 102 128
113 56 19 143 9 196 -22z m-219 -176 c16 -16 5 -39 -18 -39 -12 0 -19 7 -19
18 0 31 17 41 37 21z"/>
<path d="M3102 824 c-14 -25 -3 -53 24 -60 42 -11 72 34 42 64 -17 17 -55 15
-66 -4z"/>
<path d="M2779 1033 c-13 -16 -12 -17 4 -4 16 13 21 21 13 21 -2 0 -10 -8 -17
-17z"/>
<path d="M1730 891 c0 -15 -18 -41 -50 -72 -27 -26 -50 -54 -50 -61 0 -7 8 -2
18 12 9 14 36 43 59 66 l42 41 4 -41 4 -41 1 41 c1 22 -4 49 -13 60 -14 18
-14 18 -15 -5z"/>
<path d="M2595 886 c-14 -14 -25 -31 -25 -38 0 -7 8 -3 18 9 9 12 31 23 47 25
30 3 30 3 7 16 -19 11 -25 10 -47 -12z"/>
<path d="M3393 895 c-17 -13 -16 -14 14 -15 22 0 36 -6 43 -21 7 -11 14 -18
17 -16 7 7 -25 54 -42 60 -7 3 -21 -1 -32 -8z"/>
<path d="M2711 844 c0 -11 3 -14 6 -6 3 7 2 16 -1 19 -3 4 -6 -2 -5 -13z"/>
<path d="M3321 844 c0 -11 3 -14 6 -6 3 7 2 16 -1 19 -3 4 -6 -2 -5 -13z"/>
<path d="M2647 840 c-33 -10 -57 -28 -57 -43 0 -5 8 -3 18 5 21 18 58 21 84 7
17 -9 18 -8 9 9 -6 11 -7 22 -4 26 8 8 -15 6 -50 -4z"/>
<path d="M3338 826 c-4 -22 -3 -24 13 -16 27 15 60 12 81 -7 10 -9 18 -11 18
-5 0 15 -38 39 -76 47 -28 5 -32 3 -36 -19z"/>
<path d="M4011 813 c-13 -13 -20 -23 -14 -23 11 0 49 38 42 43 -2 2 -15 -7
-28 -20z"/>
<path d="M335 750 c-15 -16 -39 -31 -54 -33 l-26 -4 28 -2 c18 -1 38 9 59 29
17 17 29 32 26 35 -2 3 -17 -8 -33 -25z"/>
<path d="M5670 773 c0 -21 61 -63 88 -62 l27 2 -25 4 c-14 3 -40 19 -57 36
-18 17 -33 26 -33 20z"/>
<path d="M2667 750 c-5 -19 -37 -29 -37 -11 0 17 -32 21 -58 6 l-27 -15 27 6
c17 4 35 0 49 -9 26 -19 42 -14 64 19 13 20 13 24 1 24 -7 0 -16 -9 -19 -20z"/>
<path d="M3343 755 c0 -8 2 -13 5 -11 2 2 13 -5 24 -16 18 -18 21 -18 45 -3
15 10 35 14 51 11 l27 -6 -27 15 c-26 15 -58 11 -58 -6 0 -18 -32 -8 -37 11
-6 23 -30 27 -30 5z"/>
<path d="M1642 487 c23 -23 58 -39 58 -27 0 6 5 8 10 5 6 -3 10 -4 10 -1 0 7
-61 36 -77 36 -12 0 -12 -2 -1 -13z"/>
<path d="M4352 486 c-12 -7 -26 -17 -30 -21 -4 -5 -1 -4 7 0 11 6 13 4 8 -8
-6 -16 -4 -16 21 0 15 10 33 23 40 30 11 11 10 13 -5 12 -10 -1 -28 -7 -41
-13z"/>
<path d="M2975 461 c-7 -23 26 -86 46 -86 7 0 15 9 17 20 3 11 10 24 18 28 18
10 18 31 1 46 -10 8 -17 7 -25 -1 -9 -9 -15 -9 -24 0 -17 17 -26 15 -33 -7z"/>
<path d="M1613 453 c9 -2 17 -11 17 -19 0 -8 7 -14 15 -14 13 0 14 4 5 20 -6
12 -20 20 -33 19 -17 -1 -18 -2 -4 -6z"/>
<path d="M4390 440 c-9 -16 -8 -20 5 -20 8 0 15 6 15 14 0 8 8 17 18 19 13 4
12 5 -5 6 -13 1 -27 -7 -33 -19z"/>
<path d="M1573 413 c9 -2 14 -9 11 -15 -4 -7 -2 -8 4 -4 7 4 12 2 12 -3 0 -6
8 -11 18 -10 10 0 12 3 5 6 -7 2 -13 10 -13 17 0 6 -12 12 -27 13 -16 0 -20
-1 -10 -4z"/>
<path d="M4430 406 c0 -8 -6 -17 -12 -19 -8 -3 -6 -6 5 -6 9 -1 17 4 17 9 0 6
10 15 23 20 21 8 21 9 -5 9 -18 1 -28 -4 -28 -13z"/>
<path d="M1110 210 c13 -11 27 -20 32 -20 4 0 3 9 -4 20 -7 11 -21 20 -32 20
-17 0 -17 -2 4 -20z"/>
<path d="M4902 210 c-7 -11 -8 -20 -4 -20 5 0 19 9 32 20 21 18 21 20 4 20
-11 0 -25 -9 -32 -20z"/>
<path d="M1061 199 c9 -8 23 -24 31 -37 13 -19 17 -20 21 -7 4 8 2 15 -3 15
-6 0 -10 7 -10 15 0 8 -4 15 -9 15 -5 0 -18 3 -28 6 -16 6 -16 5 -2 -7z"/>
<path d="M4958 203 c-10 -2 -18 -11 -18 -18 0 -7 -8 -15 -17 -17 -16 -3 -16
-4 -2 -10 10 -4 25 4 42 23 14 16 22 28 19 28 -4 -1 -15 -3 -24 -6z"/>
<path d="M1018 180 c12 -5 22 -13 22 -18 0 -4 8 -17 18 -28 11 -11 22 -26 25
-34 4 -12 6 -11 6 2 1 9 -6 23 -14 32 -8 8 -15 19 -15 25 0 12 -33 31 -52 30
-7 0 -3 -4 10 -9z"/>
<path d="M4998 179 c-10 -5 -18 -17 -18 -24 0 -8 -4 -15 -10 -15 -5 0 -10 -4
-10 -10 0 -19 17 -10 31 16 7 15 23 30 34 35 12 5 14 8 5 8 -8 0 -23 -4 -32
-10z"/>
</g>
</svg>
